Coordinates
version=1
nRows=19
nColumns=34
inDegrees=yes

Units are S.I. units (second, meters, Newtons, ...)
If the header above contains a line with 'inDegrees', this indicates whether rotational values are in degrees (yes) or radians (no).

endheader
time	pelvis_tilt	pelvis_list	pelvis_rotation	pelvis_tx	pelvis_ty	pelvis_tz	hip_flexion_r	hip_adduction_r	hip_rotation_r	knee_angle_r	ankle_angle_r	subtalar_angle_r	mtp_angle_r	hip_flexion_l	hip_adduction_l	hip_rotation_l	knee_angle_l	ankle_angle_l	subtalar_angle_l	mtp_angle_l	lumbar_extension	lumbar_bending	lumbar_rotation	arm_flex_r	arm_add_r	arm_rot_r	elbow_flex_r	pro_sup_r	arm_flex_l	arm_add_l	arm_rot_l	elbow_flex_l	pro_sup_l
     22.26666670	      0.82948386	     -4.61510086	   -180.62234279	      0.24501853	      1.01574860	      0.16466538	      5.48323150	      1.52052169	     -0.39645770	     38.25250488	     11.90825152	    -13.00078313	      0.00000000	     45.65031994	      0.18562196	     -2.12321784	    103.19436911	     -5.19861000	    -19.32041734	      0.00000000	    -19.60648767	     -1.67177104	      8.15807625	      8.78091146	    -30.76194692	      2.54510476	    102.58555279	     96.16121676	    -19.24029359	    -30.98523148	      0.55131280	     78.39262928	     86.04053387
     22.27500000	      1.19767268	     -4.83252286	   -180.40000909	      0.24334813	      1.02233876	      0.16541830	      2.81197791	      0.80800835	     -1.33539605	     35.76018694	     10.44721253	    -11.11884833	      0.00000000	     46.68887785	      0.75050537	     -2.91559791	     98.71721121	     -6.03363390	    -20.65855168	      0.00000000	    -18.90234732	     -1.89480842	      8.51902789	      9.71793374	    -30.32145737	      3.39282896	    103.57516158	     96.29591376	    -21.59422824	    -30.25492845	     -1.01178679	     80.27879699	     85.05493034
     22.28333330	      1.83713336	     -4.70435662	   -180.64578449	      0.24020143	      1.02873178	      0.16568579	      0.33961640	      0.60921467	     -1.49512696	     33.01252994	      8.33962852	     -9.43916302	      0.00000000	     47.71015696	      0.85074330	     -3.57477651	     94.18332982	     -6.22100279	    -20.93033416	      0.00000000	    -17.38600753	     -1.59145445	      9.88373093	      9.84699298	    -29.98298158	      3.76415716	    104.48316769	     96.32113424	    -22.96439763	    -29.69761718	     -0.65649193	     80.70261243	     85.05381874
     22.29166670	      1.95582382	     -4.44986465	   -180.80482926	      0.23611689	      1.03521243	      0.16623349	     -2.94038647	      0.36954179	     -2.38076094	     29.82776251	      6.25923289	     -6.60079172	      0.00000000	     48.09874813	      1.26396581	     -3.84599591	     89.38156004	     -7.07244383	    -22.57399471	      0.00000000	    -16.87471628	     -1.46046254	     10.95425877	      9.61164004	    -30.05967635	      4.21531609	    106.88186319	     96.46322734	    -25.39632981	    -28.95401616	     -1.65621001	     83.01494449	     84.90111845
     22.30000000	      2.32747554	     -4.04936124	   -181.09601900	      0.23092309	      1.04173099	      0.16640698	     -6.00646424	      0.38070506	     -2.88298630	     26.42822174	      3.05559396	     -4.58897412	      0.00000000	     48.35324671	      1.37804578	     -4.06536098	     84.26246517	     -7.89330502	    -23.11888956	      0.00000000	    -15.54714105	     -1.05057801	     12.19195839	      8.98678755	    -30.09091979	      4.95509349	    108.43996444	     96.58097995	    -27.54112273	    -28.04159776	     -2.20586255	     84.19374159	     84.86986565
     22.30833330	      2.57084294	     -3.65717843	   -181.63798491	      0.22567808	      1.04822394	      0.16602070	     -9.05938608	      0.32569252	     -3.19211566	     23.13380927	     -0.61913299	     -2.51305674	      0.00000000	     48.09667970	      1.24560184	     -4.44729102	     78.60504441	     -9.13467734	    -23.46133208	      0.00000000	    -14.38207422	     -0.70507507	     13.45675589	      8.23541452	    -29.97114166	      5.94727220	    110.24929610	     96.72077599	    -29.93058372	    -27.06419938	     -3.02708425	     85.45260670	     84.87405024
     22.31666670	      2.82677394	     -3.23057580	   -182.16034086	      0.22067777	      1.05443743	      0.16525233	    -11.72379670	      0.32645774	     -3.29003177	     20.35303295	     -4.79105534	     -1.02092864	      0.00000000	     47.51480465	      0.96583234	     -4.77986296	     72.66788047	    -10.70942347	    -23.45807743	      0.00000000	    -13.20415466	     -0.37104327	     14.66898575	      7.31170544	    -29.89356323	      7.28066968	    111.66547669	     96.85984404	    -32.06035477	    -26.15891994	     -3.75956615	     86.37461482	     84.90935369
     22.32500000	      2.96910432	     -2.77667991	   -182.62996993	      0.21619567	      1.06091900	      0.16436766	    -13.98162195	      0.34541496	     -3.14874887	     18.31704071	     -9.13642243	     -0.13966460	      0.00000000	     46.49492666	      0.55518533	     -5.17022298	     66.30387777	    -12.27497467	    -23.03332455	      0.00000000	    -12.23857752	      0.00027039	     15.71846756	      6.47462922	    -29.74264058	      8.87738635	    112.37966054	     97.00182951	    -33.97930547	    -25.26838298	     -4.50020007	     87.13576394	     84.96892282
     22.33333330	      3.08426212	     -2.32423774	   -182.96462053	      0.21214279	      1.06711674	      0.16327738	    -15.70793589	      0.43528032	     -2.64996588	     17.16220976	    -13.16211752	     -0.09292860	      0.00000000	     45.27804912	      0.08831208	     -5.61044986	     59.77866747	    -13.42926385	    -21.72020322	      0.00000000	    -11.43437769	      0.37730714	     16.50393082	      6.20270990	    -29.52931077	     10.49566945	    112.36843404	     97.13246584	    -35.75491500	    -24.32471997	     -5.42036868	     87.74772213	     85.05153198
     22.34166670	      3.38894631	     -1.74921013	   -182.91197910	      0.20867166	      1.07233890	      0.16306134	    -16.65379399	      0.67537828	     -2.46524335	     17.06923881	    -16.16057705	      0.30576267	      0.00000000	     44.15108621	     -0.32936244	     -6.07043704	     53.10640924	    -14.47293834	    -20.17350749	      0.00000000	    -10.34966845	      1.10800207	     17.14493261	      5.58658371	    -29.49596743	     11.21171461	    112.44010797	     97.17346538	    -36.78501415	    -23.75806545	     -5.66287423	     87.97497906	     85.07106554
     22.35000000	      3.39160289	     -1.11282979	   -182.81988692	      0.20593559	      1.07663994	      0.16244409	    -17.55291486	      1.18525364	     -1.15073373	     17.67600308	    -18.31145206	     -1.67477893	      0.00000000	     42.59917458	     -0.88732276	     -6.88530979	     46.34014164	    -14.95475966	    -17.21232225	      0.00000000	     -9.85778534	      1.75386854	     17.42318513	      5.68431046	    -29.53015530	     11.84997575	    112.09114710	     97.21478785	    -37.86977279	    -22.85967325	     -6.60925178	     88.55039251	     85.11790024
     22.35833330	      3.50047093	     -0.31799774	   -182.59304049	      0.20369919	      1.07932768	      0.16221643	    -17.99701064	      1.87287012	     -0.30000376	     19.01930389	    -19.37689043	     -3.61043591	      0.00000000	     41.12768485	     -1.39308139	     -7.72997230	     39.54849297	    -15.11949109	    -13.51050087	      0.00000000	     -9.31972867	      2.64418124	     17.66602289	      5.81465354	    -29.76803762	     12.25241742	    112.11050463	     97.22179042	    -38.66594017	    -22.07695483	     -7.44084803	     89.20874488	     85.17135605
     22.36666670	      3.43861475	      0.70390224	   -182.28128484	      0.20194456	      1.08105680	      0.16218856	    -18.40824197	      2.92240129	      0.83697320	     20.94801083	    -19.59157751	     -6.61108602	      0.00000000	     39.54703994	     -2.00273563	     -8.66879444	     33.18194673	    -15.08497936	     -9.24304669	      0.00000000	     -9.06616375	      3.75564818	     17.69864148	      6.04545833	    -30.14712745	     12.61013289	    112.65851630	     97.19657798	    -39.35768285	    -21.28264541	     -8.28740358	     90.12312317	     85.24658076
     22.37500000	      3.31328787	      1.75321800	   -181.98668767	      0.20023894	      1.08187362	      0.16202103	    -18.75530135	      4.05512597	      1.87822029	     23.21835979	    -19.40623002	    -10.08094284	      0.00000000	     38.02285300	     -2.58945359	     -9.70433093	     27.46747463	    -15.14368966	     -4.72806257	      0.00000000	     -8.94866772	      4.80882688	     17.78762876	      6.23419348	    -30.64056916	     13.14561112	    113.59112429	     97.13653784	    -39.83050723	    -20.54862155	     -9.17611425	     91.21890882	     85.33332335
     22.38333330	      3.09697969	      2.77964926	   -181.74804281	      0.19867775	      1.08209435	      0.16172774	    -18.98629189	      5.18709570	      2.82457496	     25.98528883	    -19.12848747	    -13.93781947	      0.00000000	     36.64215798	     -3.13301737	    -10.64066445	     22.73657452	    -15.28631528	     -0.20887932	      0.00000000	     -9.01791483	      5.74783019	     17.91889600	      6.36665315	    -31.15569859	     13.91949733	    114.86052848	     97.03273519	    -40.08230063	    -19.83665961	    -10.05396787	     92.38730522	     85.42713729
     22.39166670	      2.83303460	      3.68053929	   -181.58514008	      0.19728851	      1.08220301	      0.16129885	    -18.96452433	      6.18739491	      3.56113127	     29.28972377	    -19.10772255	    -17.91623861	      0.00000000	     35.43013245	     -3.57330671	    -11.38066387	     18.99669752	    -15.58031356	      3.89312016	      0.00000000	     -9.27867427	      6.43255085	     18.10896137	      6.42139386	    -31.59321163	     14.74878567	    115.83079337	     96.86005109	    -39.98653369	    -19.13332177	    -10.91165753	     93.45061933	     85.52147749
     22.40000000	      2.52947336	      4.42622579	   -181.45106770	      0.19607214	      1.08200954	      0.16092757	    -18.58152990	      6.99330540	      3.96935247	     33.27454836	    -19.29826946	    -21.78835629	      0.00000000	     34.39350688	     -3.87934787	    -11.79457480	     16.22684788	    -16.10145732	      7.35210138	      0.00000000	     -9.64769638	      6.86726490	     18.34106944	      6.46443247	    -31.86771946	     15.56393217	    116.44534634	     96.62764325	    -39.54090976	    -18.48018505	    -11.64189444	     94.37136199	     85.61435166
     22.40833330	      2.23176800	      4.98880926	   -181.38044018	      0.19487658	      1.08119173	      0.16043728	    -17.84744926	      7.59601133	      4.19421505	     37.77811077	    -19.81451828	    -25.28406434	      0.00000000	     33.48340110	     -4.08111508	    -11.88666450	     14.23381405	    -16.55444164	     10.06968417	      0.00000000	    -10.16419059	      7.03617799	     18.50331116	      6.29440945	    -32.02369981	     16.45199493	    116.88849765	     96.31790345	    -38.87210017	    -17.85062852	    -12.28562628	     95.12247838	     85.70730888
     22.41666670	      1.95429320	      5.40739676	   -181.29613080	      0.19403479	      1.07943296	      0.16012405	    -16.75853544	      7.98109943	      4.06141414	     42.78231350	    -19.85470434	    -27.97765021	      0.00000000	     32.71195660	     -4.15781772	    -11.62595371	     12.94858122	    -17.08285595	     11.86095474	      0.00000000	    -10.71680888	      7.02156670	     18.60308181	      5.87630569	    -32.09935657	     17.15775571	    117.04300016	     95.99609312	    -37.90827343	    -17.29487194	    -12.76954491	     95.68511585	     85.77237211
